<svg width="96" height="96" viewBox="0 0 96 96" fill="none" xmlns="http://www.w3.org/2000/svg">
    <path
        d="M31.8662 54.8326L19.6154 53.1797C18.8376 53.0825 17.9625 53.4714 17.5736 54.2492L16.6013 56.0966C16.1152 57.0689 16.5041 58.3328 17.4764 58.819L27.2965 63.7776L31.8662 54.8326ZM41.2974 64.2638L42.9503 76.5146C43.0475 77.2924 42.6586 78.1675 41.8808 78.5564L40.0334 79.5287C39.0611 80.0148 37.7972 79.6259 37.311 78.6536L32.3523 68.8335L41.2974 64.2638V64.2638Z"
        fill="#00205B" />
    <path
        d="M27.8799 33.9284C27.1021 33.1506 27.1021 31.8866 27.8799 31.1088L35.8526 23.2333C36.6305 22.4554 37.8944 22.4554 38.6723 23.2333C39.4501 24.0111 39.4501 25.2751 38.6723 26.0529L30.6995 33.9284C30.0189 34.7062 28.7549 34.7062 27.8799 33.9284Z"
        fill="#FF8200" />
    <path
        d="M55.7845 30.6227L19.0321 27.0253C18.4487 26.928 17.9625 27.1225 17.5736 27.5114L13.6845 30.8172C12.5177 31.7895 12.9067 33.6368 14.3651 34.123L47.3256 45.4987L55.7845 30.6227V30.6227Z"
        fill="#8DC8E8" stroke="#00205B" stroke-width="1.5" />
    <path
        d="M62.2015 68.25C62.9794 69.0278 64.2433 69.0278 65.0212 68.25L72.8967 60.2773C73.6745 59.4994 73.6745 58.2355 72.8967 57.4576C72.1189 56.6798 70.8549 56.6798 70.0771 57.4576L62.2015 65.4304C61.4237 66.111 61.4237 67.375 62.2015 68.25V68.25Z"
        fill="#FF8200" />
    <path
        d="M65.5073 40.3455L69.1048 77.0979C69.202 77.6812 69.0076 78.1674 68.6186 78.5563L65.3129 82.4454C64.3406 83.6122 62.4932 83.2233 62.0071 81.7648L50.6313 48.8043L65.5073 40.3455V40.3455Z"
        fill="#8DC8E8" stroke="#00205B" stroke-width="1.5" />
    <path
        d="M26.5186 70.0003L26.1297 69.6113C23.5045 66.9862 24.0879 63.2915 26.8103 60.6663L71.2438 14.9689C73.869 12.3437 78.2442 12.3437 80.8694 14.9689L81.2583 15.3578C83.8835 17.983 83.8835 22.3583 81.2583 24.9834L35.5609 69.4169C32.9357 71.9448 29.241 72.6254 26.5186 70.0003V70.0003Z"
        fill="#F6F6F6" stroke="#00205B" stroke-width="1.5" />
</svg>