<svg width="96" height="96" viewBox="0 0 96 96" fill="none" xmlns="http://www.w3.org/2000/svg">
    <path
        d="M24.3794 60.9989C24.5817 61.1001 24.7841 61.3025 24.8852 61.5048C24.9864 61.7071 25.0875 62.0106 25.0875 62.3141C25.0875 62.6175 25.0875 62.921 24.8852 63.1233C24.6829 63.3256 24.5817 63.528 24.3794 63.6291C24.1771 63.7303 23.8736 63.8314 23.5701 63.8314C23.3678 63.8314 23.1655 63.8314 22.9632 63.7303C22.7609 63.6291 22.6597 63.528 22.4574 63.3256V63.8314H21.9516V59.5828H22.4574V61.2013C22.5586 61.1001 22.7609 60.8978 22.9632 60.7967C23.1655 60.6955 23.3678 60.6955 23.5701 60.6955C23.8736 60.7967 24.1771 60.8978 24.3794 60.9989ZM24.0759 63.3256C24.1771 63.2244 24.3794 63.1233 24.4806 62.921C24.5817 62.8199 24.5817 62.6175 24.5817 62.3141C24.5817 62.1117 24.5817 61.9094 24.4806 61.7071C24.3794 61.6059 24.2783 61.4036 24.0759 61.3025C23.9748 61.2013 23.7725 61.2013 23.5701 61.2013C23.3678 61.2013 23.1655 61.2013 23.0644 61.3025C22.9632 61.4036 22.7609 61.5048 22.6597 61.7071C22.5586 61.8083 22.5586 62.0106 22.5586 62.3141C22.5586 62.5164 22.5586 62.7187 22.6597 62.921C22.7609 63.0222 22.862 63.2244 23.0644 63.3256C23.1655 63.4268 23.3678 63.4268 23.5701 63.4268C23.7725 63.4268 23.9748 63.4268 24.0759 63.3256Z"
        fill="#415364" />
    <path
        d="M28.527 60.7967L27.0096 64.1349C26.9085 64.4383 26.7061 64.6407 26.5038 64.843C26.3015 64.9441 26.0991 65.0453 25.8969 65.0453C25.7957 65.0453 25.5933 65.0453 25.4922 65.0453C25.391 65.0453 25.2899 64.9441 25.1887 64.843L25.391 64.4383C25.4922 64.5395 25.6945 64.6407 25.8969 64.6407C25.998 64.6407 26.0991 64.6407 26.2003 64.5395C26.3015 64.5395 26.4027 64.3372 26.4027 64.1349L26.5038 63.9326L25.1887 60.8978H25.7957L26.8072 63.3256L27.8188 60.8978L28.527 60.7967Z"
        fill="#415364" />
    <path
        d="M0 34.0906H3.7429V36.923H3.84406C4.55217 35.9114 5.56376 35.1022 6.7777 34.4952C7.99162 33.8883 9.30666 33.6859 10.6217 33.6859C12.1392 33.6859 13.4542 33.8883 14.6681 34.4952C15.8821 35.1022 16.8936 35.7091 17.804 36.6196C18.7145 37.53 19.3215 38.6427 19.8273 39.8567C20.3331 41.0706 20.5354 42.3856 20.5354 43.9031C20.5354 45.3193 20.3331 46.7355 19.8273 47.9494C19.3215 49.1634 18.7145 50.2761 17.804 51.1865C16.8936 52.097 15.8821 52.8051 14.6681 53.3109C13.4542 53.8167 12.038 54.1202 10.6217 54.1202C9.20554 54.1202 7.89041 53.8167 6.67649 53.3109C5.4626 52.7039 4.55217 51.8947 3.84406 50.8831H3.7429V60.999H0V34.0906ZM10.2171 37.0242C9.20554 37.0242 8.3962 37.2265 7.48583 37.53C6.57537 37.8335 5.96841 38.3393 5.4626 38.9462C4.95681 39.5532 4.55217 40.2613 4.14754 41.0706C3.84406 41.8798 3.7429 42.7903 3.7429 43.8019C3.7429 44.8135 3.84406 45.7239 4.14754 46.5332C4.45101 47.3425 4.85565 48.0506 5.4626 48.6576C5.96841 49.2645 6.67649 49.6691 7.48583 50.0738C8.29508 50.4784 9.20554 50.5796 10.2171 50.5796C11.2287 50.5796 12.038 50.3773 12.9484 50.0738C13.7577 49.7703 14.4658 49.2645 14.9716 48.6576C15.4774 48.0506 15.8821 47.3425 16.2866 46.5332C16.5902 45.7239 16.6913 44.8135 16.6913 43.8019C16.6913 42.7903 16.5902 41.8798 16.2866 41.0706C15.9832 40.2613 15.5785 39.5532 14.9716 38.9462C14.4658 38.3393 13.7577 37.9346 12.9484 37.53C12.038 37.2265 11.1275 37.0242 10.2171 37.0242Z"
        fill="#415364" />
    <path
        d="M60.898 38.9462C60.4934 38.4404 59.9876 37.9346 59.2795 37.53C58.6725 37.1254 57.8632 36.923 56.9527 36.923C56.0424 36.923 55.3342 37.1254 54.6261 37.53C54.0192 37.9346 53.7157 38.4404 53.7157 39.1485C53.7157 39.7555 53.918 40.1601 54.3227 40.5648C54.7272 40.8683 55.1319 41.1718 55.6377 41.374C56.1435 41.5764 56.6493 41.7787 57.2563 41.8798C57.8632 41.981 58.2679 42.0822 58.7737 42.1834C59.5829 42.3856 60.291 42.588 60.9992 42.8915C61.7073 43.195 62.3142 43.4984 62.82 43.9031C63.3258 44.3077 63.7305 44.8135 64.0339 45.5216C64.3374 46.1286 64.4386 46.9378 64.4386 47.8483C64.4386 48.961 64.2363 49.8715 63.7305 50.6807C63.2247 51.49 62.7189 52.097 61.9096 52.6028C61.2015 53.1086 60.291 53.412 59.3806 53.6144C58.4702 53.8167 57.4585 53.9178 56.5482 53.9178C54.9296 53.9178 53.5133 53.7155 52.2995 53.2097C51.0856 52.7039 49.9728 51.7935 49.0623 50.4784L51.7936 48.1518C52.4006 48.7587 53.1087 49.2645 53.8169 49.7703C54.525 50.2761 55.4354 50.4784 56.5482 50.4784C57.054 50.4784 57.4585 50.4784 57.9643 50.3773C58.4702 50.2761 58.8748 50.1749 59.2795 49.9726C59.684 49.7703 59.9876 49.4668 60.1899 49.1634C60.3922 48.8599 60.4934 48.4552 60.4934 48.0506C60.4934 47.5448 60.291 47.039 59.9876 46.7355C59.684 46.4321 59.1783 46.1286 58.7737 45.9263C58.2679 45.7239 57.7621 45.5216 57.2563 45.4205C56.7505 45.3193 56.2447 45.2181 55.84 45.117C55.0308 44.9147 54.3227 44.7123 53.6145 44.4089C52.9064 44.2066 52.2995 43.8019 51.7936 43.3973C51.2878 42.9926 50.782 42.4868 50.4786 41.7787C50.1751 41.1718 49.9728 40.3625 49.9728 39.4521C49.9728 38.4404 50.1751 37.53 50.5798 36.8219C50.9844 36.0127 51.5914 35.4057 52.2995 35.001C53.0075 34.4952 53.8169 34.1917 54.7272 33.8883C55.6377 33.6859 56.5482 33.4836 57.4585 33.4836C58.7737 33.4836 60.0887 33.6859 61.2015 34.1917C62.3142 34.6975 63.3258 35.5069 64.0339 36.6196L60.898 38.9462Z"
        fill="#415364" />
    <path
        d="M35.507 40.9694C35.507 39.5532 35.1024 38.4404 34.1919 37.7323C33.2814 37.0242 32.1687 36.7207 30.6514 36.7207C29.5386 36.7207 28.527 36.923 27.5154 37.3277C26.6049 37.7323 25.6945 38.2381 25.0876 38.9462L23.0644 36.5184C23.9748 35.608 25.1887 34.8999 26.6049 34.3941C28.0212 33.8883 29.4374 33.5847 31.0559 33.5847C32.4722 33.5847 33.6861 33.7871 34.6977 34.1917C35.7093 34.5964 36.5185 35.1022 37.2267 35.8103C37.9348 36.5184 38.3395 37.3277 38.744 38.2381C39.0476 39.1486 39.2498 40.1601 39.2498 41.2729V49.6692C39.2498 50.3772 39.2498 50.9842 39.2498 51.6923C39.2498 52.4005 39.351 53.0074 39.4522 53.412H35.9116C35.7093 52.5016 35.6082 51.5911 35.6082 50.6807H35.507C34.7988 51.6923 33.8884 52.5016 32.7757 53.1086C31.6629 53.7155 30.449 53.9178 28.9316 53.9178C28.1223 53.9178 27.3131 53.8166 26.5038 53.6144C25.6945 53.412 24.8852 53.1086 24.1771 52.6028C23.469 52.0969 22.9632 51.49 22.4574 50.7819C22.0528 49.9726 21.7493 49.0622 21.7493 47.9494C21.7493 46.4321 22.1539 45.3193 22.9632 44.51C23.7725 43.7007 24.7841 42.9926 26.0991 42.588C27.4142 42.1833 28.8304 41.7787 30.449 41.7787C32.0675 41.6775 33.6861 41.5764 35.3046 41.5764L35.507 40.9694ZM34.5966 44.3077C33.6861 44.3077 32.6745 44.3077 31.6629 44.4088C30.6514 44.51 29.7409 44.6111 28.9316 44.9146C28.1223 45.2181 27.4142 45.5216 26.9084 46.0274C26.4026 46.5332 26.0991 47.1401 26.0991 47.9494C26.0991 48.5564 26.2003 48.961 26.4026 49.3656C26.6049 49.7703 26.9084 50.0737 27.3131 50.2761C27.7177 50.4784 28.1223 50.6807 28.6281 50.7819C29.1339 50.8831 29.5386 50.8831 30.0444 50.8831C31.8652 50.8831 33.2814 50.3773 34.1919 49.2645C35.1024 48.1518 35.6082 46.8367 35.6082 45.2181V44.2066L34.5966 44.3077Z"
        fill="#415364" />
    <path
        d="M72.4302 34.0906H76.6788L82.4446 49.2645H82.546L88.1096 34.0906H92.0548C92.0548 34.0906 83.0517 56.8515 82.7481 57.4584C82.4446 58.1665 81.9389 58.7735 81.5348 59.1781C81.0283 59.684 80.422 59.9874 79.7135 60.2909C79.0058 60.5943 78.1963 60.6955 77.1846 60.6955C76.6788 60.6955 76.0719 60.6955 75.4649 60.5943C74.858 60.4932 74.3522 60.392 73.8464 60.1898L74.2511 56.8515C74.9591 57.1549 75.7685 57.2561 76.4766 57.2561C77.0835 57.2561 77.4882 57.1549 77.8928 57.0538C78.2974 56.9526 78.6009 56.6491 78.9043 56.3457C79.2079 56.0422 79.41 55.7387 79.6129 55.3341C79.815 54.9294 80.422 53.412 80.422 53.412L72.4302 34.0906Z"
        fill="#415364" />
    <path d="M42.9927 42.3856H46.7356V53.412H42.9927V42.3856Z" fill="#415364" />
    <path d="M66.5629 26.3013H70.3059V53.412H66.5629V26.3013Z" fill="#415364" />
    <path
        d="M44.9148 26.3013C41.88 26.3013 39.351 28.7291 39.351 31.8651C39.351 37.0242 44.9148 41.0706 44.9148 41.0706C44.9148 41.0706 44.9148 38.4404 44.9148 37.53C46.2298 37.53 50.3774 36.6196 50.3774 31.8651C50.4786 28.8303 47.9495 26.3013 44.9148 26.3013ZM44.9148 34.5964C43.3974 34.5964 42.2846 33.3825 42.2846 31.9662C42.2846 30.4489 43.4985 29.3361 44.9148 29.3361C46.4321 29.3361 47.5449 30.55 47.5449 31.9662C47.5449 33.3825 46.331 34.5964 44.9148 34.5964Z"
        fill="#03B5E2" />
    <path
        d="M30.8537 60.7967H32.1687V67.8778C32.1687 68.9906 31.3595 69.6987 30.3478 69.6987H29.842V68.4848H30.2467C30.6514 68.4848 30.9548 68.2824 30.9548 67.7767V60.7967H30.8537ZM30.8537 58.1665H32.1687V59.4816H30.8537V58.1665Z"
        fill="#415364" />
    <path
        d="M34.293 63.528C34.293 62.5164 34.9 62.0106 35.6081 62.0106C36.3162 62.0106 36.9232 62.5164 36.9232 63.528H34.293ZM38.3394 64.6407V63.528C38.3394 61.8083 37.1255 60.7967 35.6081 60.7967C34.3942 60.7967 32.8768 61.6059 32.8768 64.1349C32.8768 66.8662 34.3942 67.4732 35.7093 67.4732C36.6197 67.4732 37.429 67.1696 38.0359 66.4616L37.1255 65.6523C36.7209 66.0569 36.2151 66.2593 35.7093 66.2593C34.7988 66.2593 34.1919 65.7535 34.1919 64.6407H38.3394Z"
        fill="#415364" />
    <path
        d="M39.351 58.8746H40.6661V60.8978H41.5765V61.9094H40.6661V65.7535C40.6661 66.1581 40.7673 66.2592 41.1719 66.2592H41.6777V67.4732H40.9695C40.0592 67.4732 39.351 66.8662 39.351 65.8546V61.9094H38.6429V60.8978H39.351V58.8746Z"
        fill="#415364" />
    <path
        d="M45.9264 63.3256C46.938 63.3256 47.4438 64.0338 47.4438 64.7418C47.4438 65.4499 46.938 66.1581 45.9264 66.1581H43.8021V63.4268H45.9264V63.3256ZM42.487 67.4731H46.331C47.6461 67.4731 48.8601 66.4615 48.8601 64.843C48.8601 63.9326 48.3543 62.921 47.3427 62.7186C48.3543 62.2129 48.6577 61.5047 48.6577 60.6955C48.6577 59.1781 47.7473 58.2676 45.9264 58.2676H42.3858L42.487 67.4731ZM45.8252 59.4816C46.8368 59.4816 47.3427 60.0886 47.3427 60.7966C47.3427 61.5047 46.8368 62.1117 45.8252 62.1117H43.9033V59.4816H45.8252Z"
        fill="#415364" />
    <path
        d="M49.5681 58.1665H50.8832V65.7535C50.8832 66.0569 50.9844 66.1581 51.389 66.1581H51.7936V67.372H51.1867C50.2762 67.372 49.467 66.9674 49.467 65.7535L49.5681 58.1665Z"
        fill="#415364" />
    <path
        d="M52.2994 60.7967H53.6145V64.7419C53.6145 65.6523 54.1203 66.1581 54.9296 66.1581C55.6377 66.1581 56.2446 65.6523 56.2446 64.7419V60.7967H57.5597V67.372H56.2446V66.6639C55.84 67.1697 55.233 67.4732 54.525 67.4732C53.5133 67.4732 52.4006 66.6639 52.4006 65.1465V60.7967H52.2994Z"
        fill="#415364" />
    <path
        d="M59.4818 63.528C59.4818 62.5164 60.0887 62.0106 60.898 62.0106C61.7073 62.0106 62.2131 62.5164 62.2131 63.528H59.4818ZM63.5281 64.6407V63.528C63.5281 61.8083 62.3142 60.7967 60.898 60.7967C59.6841 60.7967 58.1667 61.6059 58.1667 64.1349C58.1667 66.8662 59.6841 67.4732 60.9992 67.4732C61.9096 67.4732 62.7189 67.1696 63.3258 66.4616L62.4153 65.6523C62.0108 66.0569 61.505 66.2593 60.9992 66.2593C60.0887 66.2593 59.4818 65.7535 59.4818 64.6407H63.5281Z"
        fill="#415364" />
    <path
        d="M63.9328 60.6956C64.2363 60.6956 64.5397 60.999 64.5397 61.3025C64.5397 61.6059 64.3374 61.9094 63.9328 61.9094C63.6293 61.9094 63.3258 61.7071 63.3258 61.3025C63.427 60.999 63.7305 60.6956 63.9328 60.6956ZM63.9328 61.8083C64.1351 61.8083 64.3374 61.6059 64.3374 61.3025C64.3374 60.999 64.1351 60.7967 63.9328 60.7967C63.7305 60.7967 63.5281 60.999 63.5281 61.3025C63.5281 61.6059 63.7305 61.8083 63.9328 61.8083ZM63.7305 60.999H63.9328C64.0339 60.999 64.1351 60.999 64.1351 61.2013C64.1351 61.3025 64.0339 61.4036 63.9328 61.4036L64.1351 61.7071H64.0339L63.8316 61.4036V61.7071H63.7305V60.999ZM63.8316 61.3025C64.0339 61.3025 64.1351 61.3025 64.1351 61.2013C64.1351 61.1001 64.0339 61.1001 64.0339 61.1001H63.9328L63.8316 61.3025Z"
        fill="#415364" />
    <path d="M93.471 34.2929H93.0669V34.0906H94.1796V34.2929H93.7746V35.5068H93.471V34.2929Z"
        fill="#415364" />
    <path
        d="M94.3817 34.0906H94.7866L95.1908 35.1022L95.5958 34.0906H96V35.608H95.7979V34.3941L95.3929 35.608H95.1908L94.7866 34.3941V35.608H94.5838L94.3817 34.0906Z"
        fill="#415364" />
</svg>