<svg xmlns="http://www.w3.org/2000/svg" width="24" height="24" viewBox="0 0 48 48" focusable="false"
    class="">
    <g transform="translate(2 9)">
        <path
            d="M41.296 24.955l.018-.018-.018-.018h-.714v.036h.714zm.786-1.5v2.964h-23.58v-2.964h23.58zM23.106 21.93a.75.75 0 1 1-1.5 0v-.055a3.238 3.238 0 0 1 6.476 0v.055a.75.75 0 1 1-1.5 0v-.055a1.738 1.738 0 0 0-3.476 0v.055zm7.32 0a.75.75 0 0 1-1.5 0 3.297 3.297 0 0 1 3.297-3.297h4.606a3.297 3.297 0 0 1 3.297 3.297.75.75 0 0 1-1.5 0c0-.993-.805-1.797-1.797-1.797h-4.606c-.993 0-1.797.804-1.797 1.797z"></path>
        <path
            d="M19.878 29.488a.75.75 0 0 1-1.5 0V13.323a.75.75 0 0 1 1.5 0v16.165zm22.825 0a.75.75 0 0 1-1.5 0v-10.63a.75.75 0 0 1 1.5 0v10.63z"></path>
        <path
            d="M6.212 12.258l-3.52-.474a.57.57 0 0 0-.583.3l-.288.538a.57.57 0 0 0 .245.778l2.429 1.117 1.717-2.26z"></path>
        <path
            d="M8.652 14.658l.47 3.56a.578.578 0 0 1-.304.59l-.547.292a.578.578 0 0 1-.794-.22l-1.19-2.476 2.365-1.746z"></path>
        <path
            d="M2.409 6.77L9.09 9.078a.75.75 0 1 1-.49 1.418L1.393 8.003a1.177 1.177 0 0 1-.73-.927c-.077-.451.067-.828.405-1.137l.976-.825c.256-.212.586-.314.918-.282l9.115.887a.75.75 0 0 1-.146 1.493l-9.008-.877-.514.435z"></path>
        <path
            d="M13.496 8.952l1.493-.146.892 9.12c.032.332-.07.662-.286.923l-.837.988a1.234 1.234 0 0 1-1.116.384c-.413-.07-.763-.345-.948-.782l-2.484-7.22 1.418-.488 2.319 6.744.43-.51-.88-9.013z"></path>
        <path
            d="M5.857 15.889a.763.763 0 0 0 .539-.29l.068-.075L17.81 4.534a.948.948 0 0 0 .002-1.334l-.092-.092a.946.946 0 0 0-1.326-.01L5.38 14.441l-.075.068a.763.763 0 0 0-.097 1.108l.08.081c.156.138.361.207.57.19zm1.683.68a2.263 2.263 0 0 1-3.277.224l-.022-.022-.109-.109a2.263 2.263 0 0 1 .203-3.298l10.993-11.32a2.449 2.449 0 0 1 3.45.002l.097.096a2.451 2.451 0 0 1-.01 3.459L7.54 16.57z"></path>
    </g>
</svg>