<svg xmlns="http://www.w3.org/2000/svg" width="24" height="24" viewBox="0 0 48 48" focusable="false"
    class="">
    <g transform="translate(5 15)">
        <path
            d="M2.328 7.199C1.048 7.452.053 8.581.053 9.851v2.693c0 1.663 1.293 3.116 3.302 3.116h3.25a.75.75 0 1 0 0-1.5h-3.25c-1.139 0-1.802-.745-1.802-1.616V9.85c0-.531.468-1.062 1.066-1.18.646-.128 1.993-.482 4.065-1.069a.75.75 0 0 0 .457-.366c.91-1.693 1.564-2.93 1.964-3.713.385-.756 1.426-1.23 2.527-1.23H22.11c.601 0 1.416.342 1.777.697.3.296 2.073 2.066 5.306 5.302a.75.75 0 0 0 .533.22c2.065-.006 3.601-.01 4.61-.01 1.153 0 2.365 1.175 2.365 2.366v1.69c0 .857-.888 1.602-2.105 1.602h-3.286a.75.75 0 0 0 0 1.5h3.286c1.993 0 3.605-1.353 3.605-3.102v-1.69c0-2.03-1.894-3.865-3.866-3.865-.958 0-2.392.002-4.301.008a2235.37 2235.37 0 0 0-5.095-5.09c-.639-.629-1.83-1.127-2.83-1.127H11.633c-1.611 0-3.184.714-3.864 2.048-.371.728-.97 1.863-1.798 3.403-1.86.524-3.08.843-3.642.954zm10.366 6.96a.75.75 0 0 0 0 1.5h12.64a.75.75 0 0 0 0-1.5h-12.64z"
            class=""></path>
        <path
            d="M28.217 18.766a3.655 3.655 0 1 1 0-7.31 3.655 3.655 0 0 1 0 7.31zm0-1.5a2.155 2.155 0 1 0 0-4.31 2.155 2.155 0 0 0 0 4.31zm-18.551 1.5a3.655 3.655 0 1 1 0-7.31 3.655 3.655 0 0 1 0 7.31zm0-1.5a2.155 2.155 0 1 0 0-4.31 2.155 2.155 0 0 0 0 4.31zM26.16 7.013c1 0 1 1.5 0 1.5h-8.487a.75.75 0 0 1-.741-.635l-.134-.865h9.362zm-13.282 1.5a.75.75 0 1 1 0-1.5h3.92l-.724-4.697a.75.75 0 0 1 1.482-.228l.858 5.56-.74-.635h8.486v1.5H12.878z"></path>
    </g>
</svg>