<svg xmlns="http://www.w3.org/2000/svg" width="24" height="24" viewBox="0 0 48 48" focusable="false"
    class="">
    <g transform="translate(6 11)">
        <polygon points="33.471 15.622 33.471 19.122 .428 19.122 .428 15.622"></polygon>
        <path
            d="M4.98 13.262a.75.75 0 1 1-1.5 0v-.475a3.75 3.75 0 0 1 3.75-3.75h2.141a3.75 3.75 0 0 1 3.75 3.75v.475a.75.75 0 1 1-1.5 0v-.475a2.25 2.25 0 0 0-2.25-2.25h-2.14a2.25 2.25 0 0 0-2.25 2.25v.475zm11.194 0a.75.75 0 0 1-1.5 0v-.48a3.75 3.75 0 0 1 3.75-3.75h9.262a3.75 3.75 0 0 1 3.75 3.75v.48a.75.75 0 0 1-1.5 0v-.48a2.25 2.25 0 0 0-2.25-2.25h-9.262a2.25 2.25 0 0 0-2.25 2.25v.48zM1.759 23.592a.75.75 0 0 1-1.5 0V1.5a.75.75 0 0 1 1.5 0v22.092zm32.56 0a.75.75 0 0 1-1.5 0V9.065a.75.75 0 0 1 1.5 0v14.527z"></path>
    </g>
</svg>